<svg xmlns="http://www.w3.org/2000/svg" width="17" height="20" viewBox="0 0 17 20">
    <path fill="#777" fill-rule="evenodd" d="M15.191 13.814s-.036 0 0 0l-.036-4.41c0-4.039-2.667-7.188-6.299-7.522V.734c0-.978-1.482-.98-1.482 0v1.148c-3.778.369-6.298 3.628-6.298 7.374v4.594c-1.845.872-1.158 3.52.853 3.52h2.927C5.15 18.889 6.485 20 8.116 20c1.63 0 2.963-1.111 3.26-2.63h3.038c2.14 0 2.64-2.872.777-3.556zm-7.076 4.704a1.828 1.828 0 0 1-1.704-1.148h3.446a1.923 1.923 0 0 1-1.742 1.148zm6.299-2.63H1.929c-.546 0-.552-.594-.222-.704.519-.222.853-.741.853-1.334l-.002-4.594c0-7.825 11.115-8.034 11.115.148v4.446c0 .63.37 1.148.999 1.37.307.102.255.668-.258.668z"/>
</svg>
