<svg xmlns="http://www.w3.org/2000/svg" width="16" height="16" viewBox="0 0 16 16">
    <path fill-rule="evenodd" d="M7 0c-.373.004-.71.302-.802.595l-.388 1.37a6.569 6.569 0 0 0-.526.216l-1.25-.69a.852.852 0 0 0-.982.138L1.638 3.043a.852.852 0 0 0-.138.992l.69 1.241a5.934 5.934 0 0 0-.224.526l-1.362.396A.85.85 0 0 0 0 6.991v2.01c.001.356.26.696.604.792l1.362.388c.067.184.132.368.215.543L1.5 11.957a.852.852 0 0 0 .138.991l1.414 1.414c.251.25.672.31.983.138l1.25-.69c.17.081.347.15.525.216l.388 1.37A.85.85 0 0 0 7 16h2a.85.85 0 0 0 .802-.604l.388-1.37c.178-.066.355-.135.526-.216l1.25.69c.31.171.731.112.982-.138l1.414-1.414a.852.852 0 0 0 .138-.991l-.681-1.233c.083-.175.148-.359.215-.543l1.362-.388A.851.851 0 0 0 16 9V6.991a.85.85 0 0 0-.604-.793l-1.362-.396a5.934 5.934 0 0 0-.224-.526l.69-1.241a.852.852 0 0 0-.138-.992l-1.414-1.414a.852.852 0 0 0-.983-.137l-1.25.69a6.569 6.569 0 0 0-.525-.216L9.802.595A.85.85 0 0 0 9 0H7zm.62 1.655h.76l.327 1.138c.076.269.3.493.569.57.384.106.751.26 1.095.456a.845.845 0 0 0 .81 0l1.043-.578.535.535-.586 1.034a.844.844 0 0 0 .008.82c.195.343.35.702.457 1.086a.845.845 0 0 0 .569.577l1.138.328v.758l-1.138.32a.845.845 0 0 0-.57.577 4.817 4.817 0 0 1-.456 1.095.845.845 0 0 0-.008.81l.577 1.043-.526.526-1.043-.577a.845.845 0 0 0-.81 0c-.344.195-.711.35-1.095.456a.843.843 0 0 0-.57.57l-.327 1.146h-.758l-.328-1.147a.843.843 0 0 0-.569-.569 4.817 4.817 0 0 1-1.095-.456.845.845 0 0 0-.81 0l-1.043.577-.526-.534.577-1.035a.845.845 0 0 0-.008-.81 4.817 4.817 0 0 1-.457-1.095.845.845 0 0 0-.569-.578L1.655 8.38v-.758l1.138-.328a.845.845 0 0 0 .57-.577c.106-.384.26-.743.456-1.087a.844.844 0 0 0 .008-.819l-.586-1.034.535-.535 1.043.578a.845.845 0 0 0 .81 0c.344-.195.711-.35 1.095-.457a.844.844 0 0 0 .57-.569l.327-1.138zM8 4.69A3.322 3.322 0 0 0 4.69 8 3.322 3.322 0 0 0 8 11.31 3.322 3.322 0 0 0 11.31 8 3.322 3.322 0 0 0 8 4.69zm0 1.655c.924 0 1.655.731 1.655 1.655S8.924 9.655 8 9.655A1.643 1.643 0 0 1 6.345 8c0-.924.731-1.655 1.655-1.655z"/>
</svg>
