<svg xmlns="http://www.w3.org/2000/svg" width="20" height="20" viewBox="0 0 20 20">
    <path fill="#777" fill-rule="evenodd" d="M10 0C4.48 0 0 4.48 0 10s4.48 10 10 10 10-4.48 10-10S15.52 0 10 0zM4.085 16.225c1.634-2.113 3.717-3.267 5.915-3.267s4.28 1.154 5.915 3.267A8.597 8.597 0 0 1 10 18.592a8.59 8.59 0 0 1-5.915-2.367zM10 11.268a2.927 2.927 0 0 1-2.93-2.93A2.928 2.928 0 0 1 10 5.408a2.927 2.927 0 0 1 2.93 2.93 2.927 2.927 0 0 1-2.93 2.93zm6.874 3.888c-1.268-1.578-2.79-2.676-4.423-3.212a4.37 4.37 0 0 0 1.917-3.606 4.34 4.34 0 0 0-4.339-4.339 4.34 4.34 0 0 0-4.338 4.339c0 1.493.76 2.817 1.916 3.606-1.634.536-3.154 1.634-4.422 3.212-1.099-1.437-1.718-3.24-1.718-5.156 0-4.733 3.859-8.592 8.592-8.592 4.73 0 8.533 3.859 8.533 8.592a8.6 8.6 0 0 1-1.718 5.156z"/>
</svg>
